# xmcd
#
# Track frame offsets: 
#        150
#        11123
#        23563
#        35450
#        48270
#        59540
#        71743
#        83948
#        96461
#        108903
#        120430
#        131437
#        143454
#        155563
#        168225
#        181179
#        194496
#        206596
#        219304
#        231604
#        243559
#        256157
#        269717
#        279760
#        291103
#
# Disc length: 4087 seconds
#
# Revision: 1
# Processed by: cddbd v1.5.2PL0 Copyright (c) Steve Scherf et al.
# Submitted via: ExactAudioCopy v0.99pb5
#
DISCID=6c0ff519
DTITLE=Jimmy Witherspoon - 1948-1949
DYEAR=1900
DGENRE=Blues
TTITLE0=Funny style baby
TTITLE1=Cold blooded boogie
TTITLE2=Lush head woman
TTITLE3=Long about dawn
TTITLE4=Miss Clawdy B
TTITLE5=Thelma Lee blues
TTITLE6=Pinocchio blues
TTITLE7=Cake jump
TTITLE8=Your red wagon
TTITLE9=Sweet lovin' baby
TTITLE10=Geneva blues
TTITLE11=Feelin' so sad
TTITLE12=Same old blues
TTITLE13=I love you just the same
TTITLE14=Connie Lee
TTITLE15=T.B. blues
TTITLE16=Big fine girl
TTITLE17=Jump children (good jumpin')
TTITLE18=Take me back baby
TTITLE19=Who's been jivin' you
TTITLE20=Rain, rain, rain
TTITLE21=When I had my money
TTITLE22=Doctor blues
TTITLE23=Big fine girl
TTITLE24=No rollin' blues
EXTD=
EXTT0=
EXTT1=
EXTT2=
EXTT3=
EXTT4=
EXTT5=
EXTT6=
EXTT7=
EXTT8=
EXTT9=
EXTT10=
EXTT11=
EXTT12=
EXTT13=
EXTT14=
EXTT15=
EXTT16=
EXTT17=
EXTT18=
EXTT19=
EXTT20=
EXTT21=
EXTT22=
EXTT23=
EXTT24=
PLAYORDER=
